<svg width="16" height="12" viewBox="0 0 16 12" fill="none" xmlns="http://www.w3.org/2000/svg">
<path d="M8 0.666626C4.36364 0.666626 1.25818 2.92844 0 6.12117C1.25818 9.3139 4.36364 11.5757 8 11.5757C11.6364 11.5757 14.7418 9.3139 16 6.12117C14.7418 2.92844 11.6364 0.666626 8 0.666626ZM8 9.75753C5.99273 9.75753 4.36364 8.12844 4.36364 6.12117C4.36364 4.1139 5.99273 2.48481 8 2.48481C10.0073 2.48481 11.6364 4.1139 11.6364 6.12117C11.6364 8.12844 10.0073 9.75753 8 9.75753ZM8 3.93935C6.79273 3.93935 5.81818 4.9139 5.81818 6.12117C5.81818 7.32844 6.79273 8.30299 8 8.30299C9.20727 8.30299 10.1818 7.32844 10.1818 6.12117C10.1818 4.9139 9.20727 3.93935 8 3.93935Z" fill="#4D4D4D"/>
</svg>
